<svg width="998" height="42" fill="none" xmlns="http://www.w3.org/2000/svg"><path d="M532.459 26.658a3.193 3.193 0 0 1-3.079-3.304 3.196 3.196 0 0 1 3.319-3.065 3.193 3.193 0 0 1 3.079 3.304 3.195 3.195 0 0 1-3.319 3.065Z" fill="#3897FF"/><path d="M652.084 18.963c-2.702-.1-4.81-2.363-4.709-5.053.102-2.69 2.374-4.788 5.076-4.687 2.702.101 4.81 2.363 4.709 5.053-.102 2.69-2.374 4.788-5.076 4.688Z" fill="#8E4DD5"/><path d="M727.899 36.644c-2.25-.084-4.006-1.969-3.922-4.21.085-2.24 1.978-3.987 4.228-3.903 2.251.084 4.007 1.968 3.922 4.209-.084 2.24-1.977 3.988-4.228 3.904ZM2.87 19.707A2.695 2.695 0 0 1 .27 16.918a2.697 2.697 0 0 1 2.802-2.587 2.695 2.695 0 0 1 2.599 2.789 2.697 2.697 0 0 1-2.802 2.587ZM965.85 13.375a2.808 2.808 0 0 1-1.778-3.56 2.826 2.826 0 0 1 3.575-1.77 2.808 2.808 0 0 1 1.778 3.56 2.826 2.826 0 0 1-3.575 1.77Z" fill="#00A98F"/><path d="M899.033 39.457c-2.567-.858-3.949-3.625-3.087-6.18.862-2.555 3.641-3.93 6.208-3.073 2.567.858 3.949 3.625 3.087 6.18-.862 2.555-3.641 3.931-6.208 3.073ZM992.277 8.153a3.339 3.339 0 0 1-2.114-4.232 3.361 3.361 0 0 1 4.251-2.104 3.338 3.338 0 0 1 2.114 4.232 3.36 3.36 0 0 1-4.251 2.104Z" fill="#8E4DD5"/><path d="M979 35.692a4.876 4.876 0 0 1-3.087-6.18c.862-2.555 3.642-3.93 6.208-3.073 2.567.858 3.949 3.625 3.087 6.18-.861 2.555-3.641 3.931-6.208 3.073Z" fill="#3897FF"/><path d="m885.077 14.21 3.67.48 2.218 2.955.476-3.655 2.963-2.203-3.67-.48-2.218-2.956-.476 3.655-2.963 2.203ZM321.159 16.987l3.67.48 2.218 2.955.476-3.654 2.963-2.204-3.67-.48-2.218-2.955-.476 3.655-2.963 2.203Z" fill="#FC0"/><path d="m933.901 25.759 2.925.383 1.768 2.355.379-2.913 2.362-1.756-2.925-.383-1.768-2.355-.38 2.912-2.361 1.757Z" fill="#8E4DD5"/><path d="m917.082 6.106 2.926.383 1.768 2.355.379-2.913 2.362-1.756-2.926-.383-1.768-2.356-.379 2.913-2.362 1.757Z" fill="#00A98F"/><path d="m177.307 33.182 2.925.383L182 35.92l.379-2.913 2.362-1.756-2.925-.383-1.768-2.355-.38 2.912-2.361 1.757Z" fill="#8E4DD5"/><path d="m789.146 22.408 6.504 2.358-3.484-13.018-6.783-2 3.763 12.66ZM421.826 17.207l.903 4.115 5.566-6.032-1.179-4.142-5.29 6.059Z" fill="#00A98F"/><path d="m849.607 28.128-.092-5.597-8.909 6.414.447 5.704 8.554-6.521Z" fill="#3897FF"/></svg>