<svg width="995" height="199" fill="none" xmlns="http://www.w3.org/2000/svg"><path d="M532.362 183.67a3.193 3.193 0 0 1-3.047-3.333 3.195 3.195 0 0 1 3.348-3.033 3.192 3.192 0 0 1 3.047 3.333 3.195 3.195 0 0 1-3.348 3.033Z" fill="#3897FF"/><path d="M652.055 177.12c-2.701-.127-4.788-2.41-4.66-5.098.127-2.689 2.42-4.766 5.12-4.639 2.701.127 4.788 2.41 4.661 5.098-.128 2.689-2.42 4.766-5.121 4.639Z" fill="#8E4DD5"/><path d="M727.698 195.524a4.066 4.066 0 0 1-3.882-4.246c.106-2.239 2.016-3.969 4.265-3.863a4.066 4.066 0 0 1 3.882 4.246c-.106 2.239-2.016 3.969-4.265 3.863ZM2.863 171.654a2.695 2.695 0 0 1-2.571-2.813 2.697 2.697 0 0 1 2.826-2.56 2.694 2.694 0 0 1 2.572 2.813 2.697 2.697 0 0 1-2.827 2.56ZM965.86 174.532a2.808 2.808 0 0 1-1.744-3.576 2.827 2.827 0 0 1 3.592-1.736 2.808 2.808 0 0 1 1.744 3.576 2.827 2.827 0 0 1-3.592 1.736ZM958.963 142.214a1.596 1.596 0 0 1-.992-2.033 1.608 1.608 0 0 1 2.043-.987 1.597 1.597 0 0 1 .991 2.033 1.607 1.607 0 0 1-2.042.987Z" fill="#00A98F"/><path d="M918.885 158.344c-2.558-.882-3.914-3.662-3.027-6.209.886-2.546 3.678-3.896 6.237-3.013 2.558.882 3.914 3.662 3.027 6.209-.886 2.547-3.678 3.896-6.237 3.013ZM988.337 53.563a3.339 3.339 0 0 1-2.074-4.252 3.36 3.36 0 0 1 4.271-2.063 3.338 3.338 0 0 1 2.073 4.251 3.36 3.36 0 0 1-4.27 2.064Z" fill="#8E4DD5"/><path d="M959.797 59.974c-2.558-.882-3.914-3.662-3.028-6.21.886-2.546 3.679-3.895 6.237-3.013a4.875 4.875 0 0 1 3.028 6.21c-.886 2.546-3.679 3.895-6.237 3.013Z" fill="#3897FF"/><path d="m962.164 100.251 6.749-2.37 6.399 3.164-2.364-6.717 3.191-6.38-6.749 2.368-6.399-3.163 2.363 6.716-3.19 6.382ZM885.083 174.594l3.665.516 2.19 2.975.511-3.649 2.984-2.175-3.666-.516-2.189-2.976-.511 3.65-2.984 2.175ZM321.164 171.979l3.666.515 2.19 2.976.51-3.65 2.984-2.175-3.665-.515-2.19-2.976-.511 3.649-2.984 2.176Z" fill="#FC0"/><path d="m933.794 186.61 2.922.411 1.745 2.372.407-2.909 2.379-1.734-2.922-.411-1.746-2.372-.407 2.909-2.378 1.734Z" fill="#8E4DD5"/><path d="m956.165 13.797 2.922.411 1.745 2.372.407-2.91 2.378-1.733-2.921-.41-1.746-2.373-.407 2.91-2.378 1.733Z" fill="#00A98F"/><path d="m177.161 186.797 2.922.411 1.745 2.371.407-2.909 2.379-1.733-2.922-.411-1.745-2.372-.408 2.909-2.378 1.734Z" fill="#8E4DD5"/><path d="m789.078 181.875 6.481 2.42-3.36-13.051-6.763-2.064 3.642 12.695ZM421.822 173.161l.864 4.123 5.623-5.978-1.14-4.153-5.347 6.008Z" fill="#00A98F"/><path d="m849.481 188.173-.038-5.598-8.97 6.329.392 5.707 8.616-6.438ZM989.31 118.27l-.02-2.988-4.79 3.379.21 3.047 4.6-3.438Z" fill="#3897FF"/></svg>